{
  "accessors": [
    {
      "bufferView": 2,
      "componentType": 5126,
      "count": 3128,
      "max": [
        1.0668487548828125,
        1.0668487548828125,
        0.5352004766464233
      ],
      "min": [
        -1.0668487548828125,
        -1.0668487548828125,
        -1.0650726556777954
      ],
      "type": "VEC3"
    },
    {
      "bufferView": 2,
      "byteOffset": 37536,
      "componentType": 5126,
      "count": 3128,
      "max": [
        1.0,
        1.0,
        0.3317801356315613
      ],
      "min": [
        -1.0,
        -1.0,
        -1.0
      ],
      "type": "VEC3"
    },
    {
      "bufferView": 3,
      "componentType": 5126,
      "count": 3128,
      "max": [
        1.0,
        0.9152209758758545,
        1.0,
        1.0
      ],
      "min": [
        -0.9994789361953735,
        -0.9268001914024353,
        -0.7811620235443115,
        1.0
      ],
      "type": "VEC4"
    },
    {
      "bufferView": 1,
      "componentType": 5126,
      "count": 3128,
      "max": [
        1.3136106729507446,
        2.6475484371185303
      ],
      "min": [
        -0.6261106133460999,
        -1.6475484371185303
      ],
      "type": "VEC2"
    },
    {
      "bufferView": 1,
      "byteOffset": 25024,
      "componentType": 5126,
      "count": 3128,
      "max": [
        1.3136106729507446,
        2.6475484371185303
      ],
      "min": [
        -0.6261106133460999,
        -1.6475484371185303
      ],
      "type": "VEC2"
    },
    {
      "bufferView": 0,
      "componentType": 5125,
      "count": 17211,
      "type": "SCALAR"
    },
    {
      "bufferView": 2,
      "byteOffset": 75072,
      "componentType": 5126,
      "count": 416,
      "max": [
        1.060101866722107,
        1.060101866722107,
        1.254410982131958
      ],
      "min": [
        -1.060101866722107,
        -1.060101866722107,
        0.6418238878250122
      ],
      "type": "VEC3"
    },
    {
      "bufferView": 2,
      "byteOffset": 80064,
      "componentType": 5126,
      "count": 416,
      "max": [
        0.9993835091590881,
        0.9993835091590881,
        0.9987384676933289
      ],
      "min": [
        -0.9993835091590881,
        -0.9993835091590881,
        -1.0
      ],
      "type": "VEC3"
    },
    {
      "bufferView": 3,
      "byteOffset": 50048,
      "componentType": 5126,
      "count": 416,
      "max": [
        1.0,
        0.989801287651062,
        0.9997116923332214,
        1.0
      ],
      "min": [
        -1.0,
        -0.989801287651062,
        -0.6257352828979492,
        1.0
      ],
      "type": "VEC4"
    },
    {
      "bufferView": 1,
      "byteOffset": 50048,
      "componentType": 5126,
      "count": 416,
      "max": [
        0.875,
        1.0
      ],
      "min": [
        0.125,
        0.0
      ],
      "type": "VEC2"
    },
    {
      "bufferView": 1,
      "byteOffset": 53376,
      "componentType": 5126,
      "count": 416,
      "max": [
        0.875,
        1.0
      ],
      "min": [
        0.125,
        0.0
      ],
      "type": "VEC2"
    },
    {
      "bufferView": 0,
      "byteOffset": 68844,
      "componentType": 5125,
      "count": 2088,
      "type": "SCALAR"
    },
    {
      "bufferView": 2,
      "byteOffset": 85056,
      "componentType": 5126,
      "count": 2430,
      "max": [
        1.1594340801239014,
        15.618584632873535,
        13.015727996826172
      ],
      "min": [
        -15.652266502380371,
        -1.2158920764923096,
        -1.0285015106201172
      ],
      "type": "VEC3"
    },
    {
      "bufferView": 2,
      "byteOffset": 114216,
      "componentType": 5126,
      "count": 2430,
      "max": [
        1.0,
        1.0,
        1.0
      ],
      "min": [
        -1.0,
        -1.0,
        -0.9997676610946655
      ],
      "type": "VEC3"
    },
    {
      "bufferView": 3,
      "byteOffset": 56704,
      "componentType": 5126,
      "count": 2430,
      "max": [
        0.9998455047607422,
        1.0,
        1.0,
        1.0
      ],
      "min": [
        -0.999845564365387,
        -1.0,
        -0.8944272994995117,
        1.0
      ],
      "type": "VEC4"
    },
    {
      "bufferView": 1,
      "byteOffset": 56704,
      "componentType": 5126,
      "count": 2430,
      "max": [
        0.875,
        1.0
      ],
      "min": [
        0.125,
        0.0
      ],
      "type": "VEC2"
    },
    {
      "bufferView": 1,
      "byteOffset": 76144,
      "componentType": 5126,
      "count": 2430,
      "max": [
        0.875,
        1.0
      ],
      "min": [
        0.125,
        0.0
      ],
      "type": "VEC2"
    },
    {
      "bufferView": 0,
      "byteOffset": 77196,
      "componentType": 5125,
      "count": 12288,
      "type": "SCALAR"
    },
    {
      "bufferView": 2,
      "byteOffset": 143376,
      "componentType": 5126,
      "count": 49,
      "max": [
        0.4379839599132538,
        0.43798401951789856,
        1.2484188079833984
      ],
      "min": [
        -0.43798398971557617,
        -0.4379839599132538,
        1.2007023096084595
      ],
      "type": "VEC3"
    },
    {
      "bufferView": 2,
      "byteOffset": 143964,
      "componentType": 5126,
      "count": 49,
      "max": [
        0.15947608649730682,
        0.1594771444797516,
        1.0
      ],
      "min": [
        -0.15947584807872772,
        -0.1594766080379486,
        0.9872016310691833
      ],
      "type": "VEC3"
    },
    {
      "bufferView": 3,
      "byteOffset": 95584,
      "componentType": 5126,
      "count": 49,
      "max": [
        1.0,
        0.050572045147418976,
        0.1594691276550293,
        1.0
      ],
      "min": [
        0.9870105385780334,
        -0.050333645194768906,
        -0.1594693660736084,
        1.0
      ],
      "type": "VEC4"
    },
    {
      "bufferView": 1,
      "byteOffset": 95584,
      "componentType": 5126,
      "count": 49,
      "max": [
        1.0099527835845947,
        1.0079917907714844
      ],
      "min": [
        -0.007030785083770752,
        -0.008991718292236328
      ],
      "type": "VEC2"
    },
    {
      "bufferView": 1,
      "byteOffset": 95976,
      "componentType": 5126,
      "count": 49,
      "max": [
        1.0099527835845947,
        1.0079917907714844
      ],
      "min": [
        -0.007030785083770752,
        -0.008991718292236328
      ],
      "type": "VEC2"
    },
    {
      "bufferView": 0,
      "byteOffset": 126348,
      "componentType": 5125,
      "count": 216,
      "type": "SCALAR"
    }
  ],
  "asset": {
    "extras": {
      "author": "Mistory09 (https://sketchfab.com/Mistory09)",
      "license": "CC-BY-4.0 (http://creativecommons.org/licenses/by/4.0/)",
      "source": "https://sketchfab.com/3d-models/pandoras-box-673dfd6b56ff42fcbc3c29e3a2fdd3d1",
      "title": "Pandora's Box"
    },
    "generator": "Sketchfab-15.74.0",
    "version": "2.0"
  },
  "bufferViews": [
    {
      "buffer": 0,
      "byteLength": 127212,
      "name": "floatBufferViews",
      "target": 34963
    },
    {
      "buffer": 0,
      "byteLength": 96368,
      "byteOffset": 127212,
      "byteStride": 8,
      "name": "floatBufferViews",
      "target": 34962
    },
    {
      "buffer": 0,
      "byteLength": 144552,
      "byteOffset": 223580,
      "byteStride": 12,
      "name": "floatBufferViews",
      "target": 34962
    },
    {
      "buffer": 0,
      "byteLength": 96368,
      "byteOffset": 368132,
      "byteStride": 16,
      "name": "floatBufferViews",
      "target": 34962
    }
  ],
  "buffers": [
    {
      "byteLength": 464500,
      "uri": "scene.bin"
    }
  ],
  "extensionsUsed": [
    "KHR_materials_specular"
  ],
  "images": [
    {
      "uri": "textures/Material.006_baseColor.png"
    },
    {
      "uri": "textures/Material.006_metallicRoughness.png"
    },
    {
      "uri": "textures/Material.006_normal.png"
    },
    {
      "uri": "textures/Material.007_baseColor.png"
    },
    {
      "uri": "textures/Material.007_metallicRoughness.png"
    },
    {
      "uri": "textures/Material.007_normal.png"
    },
    {
      "uri": "textures/Material.001_metallicRoughness.png"
    }
  ],
  "materials": [
    {
      "doubleSided": true,
      "extensions": {
        "KHR_materials_specular": {
          "specularColorFactor": [
            1.0,
            1.0,
            1.0
          ],
          "specularFactor": 1.0
        }
      },
      "name": "Material.006",
      "normalTexture": {
        "index": 2
      },
      "pbrMetallicRoughness": {
        "baseColorTexture": {
          "index": 0
        },
        "metallicRoughnessTexture": {
          "index": 1
        }
      }
    },
    {
      "doubleSided": true,
      "extensions": {
        "KHR_materials_specular": {
          "specularColorFactor": [
            1.0,
            1.0,
            1.0
          ],
          "specularFactor": 0.5887782741006916
        }
      },
      "name": "Material.007",
      "normalTexture": {
        "index": 5
      },
      "pbrMetallicRoughness": {
        "baseColorTexture": {
          "index": 3
        },
        "metallicRoughnessTexture": {
          "index": 4
        },
        "roughnessFactor": 0.260835749064709
      }
    },
    {
      "doubleSided": true,
      "name": "Material.001",
      "normalTexture": {
        "index": 2
      },
      "pbrMetallicRoughness": {
        "baseColorTexture": {
          "index": 0
        },
        "metallicRoughnessTexture": {
          "index": 6
        }
      }
    }
  ],
  "meshes": [
    {
      "name": "Cube.006_Material.006_0",
      "primitives": [
        {
          "attributes": {
            "NORMAL": 1,
            "POSITION": 0,
            "TANGENT": 2,
            "TEXCOORD_0": 3,
            "TEXCOORD_1": 4
          },
          "indices": 5,
          "material": 0,
          "mode": 4
        }
      ]
    },
    {
      "name": "Cube.008_Material.007_0",
      "primitives": [
        {
          "attributes": {
            "NORMAL": 7,
            "POSITION": 6,
            "TANGENT": 8,
            "TEXCOORD_0": 9,
            "TEXCOORD_1": 10
          },
          "indices": 11,
          "material": 1,
          "mode": 4
        }
      ]
    },
    {
      "name": "Cube.004_Material.007_0",
      "primitives": [
        {
          "attributes": {
            "NORMAL": 13,
            "POSITION": 12,
            "TANGENT": 14,
            "TEXCOORD_0": 15,
            "TEXCOORD_1": 16
          },
          "indices": 17,
          "material": 1,
          "mode": 4
        }
      ]
    },
    {
      "name": "Cube.001_Material.001_0",
      "primitives": [
        {
          "attributes": {
            "NORMAL": 19,
            "POSITION": 18,
            "TANGENT": 20,
            "TEXCOORD_0": 21,
            "TEXCOORD_1": 22
          },
          "indices": 23,
          "material": 2,
          "mode": 4
        }
      ]
    }
  ],
  "nodes": [
    {
      "children": [
        1
      ],
      "matrix": [
        1.0,
        0.0,
        0.0,
        0.0,
        0.0,
        2.220446049250313e-16,
        -1.0,
        0.0,
        0.0,
        1.0,
        2.220446049250313e-16,
        0.0,
        0.0,
        0.0,
        0.0,
        1.0
      ],
      "name": "Sketchfab_model"
    },
    {
      "children": [
        2
      ],
      "matrix": [
        0.009999999776482582,
        0.0,
        0.0,
        0.0,
        0.0,
        0.0,
        0.009999999776482582,
        0.0,
        0.0,
        -0.009999999776482582,
        0.0,
        0.0,
        0.0,
        0.0,
        0.0,
        1.0
      ],
      "name": "pandora box.fbx"
    },
    {
      "children": [
        3,
        5,
        7,
        9,
        11
      ],
      "name": "RootNode"
    },
    {
      "children": [
        4
      ],
      "matrix": [
        -65.1558127516791,
        -44.52713915455176,
        -61.417049289096546,
        0.0,
        -32.401349332924404,
        89.53957282709818,
        -30.5420854760369,
        0.0,
        68.59207001076241,
        8.666908837178815e-06,
        -72.76761921184274,
        0.0,
        735.88916015625,
        495.8309326171875,
        692.5791015625,
        1.0
      ],
      "name": "Camera"
    },
    {
      "name": "Object_4"
    },
    {
      "children": [
        6
      ],
      "matrix": [
        100.0,
        0.0,
        0.0,
        0.0,
        0.0,
        -1.629206793918314e-05,
        -99.99999999999868,
        0.0,
        0.0,
        99.99999999999868,
        -1.629206793918314e-05,
        0.0,
        0.0,
        0.0,
        0.0,
        1.0
      ],
      "name": "Cube.006"
    },
    {
      "mesh": 0,
      "name": "Cube.006_Material.006_0"
    },
    {
      "children": [
        8
      ],
      "matrix": [
        100.0,
        0.0,
        0.0,
        0.0,
        0.0,
        -1.629206793918314e-05,
        -99.99999999999868,
        0.0,
        0.0,
        99.99999999999868,
        -1.629206793918314e-05,
        0.0,
        0.0,
        -7.3376312255859375,
        0.0,
        1.0
      ],
      "name": "Cube.008"
    },
    {
      "mesh": 1,
      "name": "Cube.008_Material.007_0"
    },
    {
      "children": [
        10
      ],
      "matrix": [
        5.652922111255567e-07,
        1.4357823613638334e-15,
        12.932377815246571,
        0.0,
        12.932377815246557,
        -5.652922111255567e-07,
        -5.652922118434478e-07,
        0.0,
        5.652922118434478e-07,
        12.932377815246571,
        -2.5844082504549e-14,
        0.0,
        -92.9026107788086,
        -106.39530181884766,
        93.8084716796875,
        1.0
      ],
      "name": "Cube.004"
    },
    {
      "mesh": 2,
      "name": "Cube.004_Material.007_0"
    },
    {
      "children": [
        12
      ],
      "matrix": [
        100.0,
        0.0,
        0.0,
        0.0,
        0.0,
        -1.629206793918314e-05,
        -99.99999999999868,
        0.0,
        0.0,
        99.99999999999868,
        -1.629206793918314e-05,
        0.0,
        0.0,
        -7.3376312255859375,
        0.0,
        1.0
      ],
      "name": "Cube.001"
    },
    {
      "mesh": 3,
      "name": "Cube.001_Material.001_0"
    }
  ],
  "samplers": [
    {
      "magFilter": 9729,
      "minFilter": 9987,
      "wrapS": 10497,
      "wrapT": 10497
    }
  ],
  "scene": 0,
  "scenes": [
    {
      "name": "Sketchfab_Scene",
      "nodes": [
        0
      ]
    }
  ],
  "textures": [
    {
      "sampler": 0,
      "source": 0
    },
    {
      "sampler": 0,
      "source": 1
    },
    {
      "sampler": 0,
      "source": 2
    },
    {
      "sampler": 0,
      "source": 3
    },
    {
      "sampler": 0,
      "source": 4
    },
    {
      "sampler": 0,
      "source": 5
    },
    {
      "sampler": 0,
      "source": 6
    }
  ]
}
