{
	"asset":{
		"generator":"Khronos glTF Blender I/O v4.1.63",
		"version":"2.0"
	},
	"scene":0,
	"scenes":[
		{
			"name":"Scene",
			"nodes":[
				0
			]
		}
	],
	"nodes":[
		{
			"mesh":0,
			"name":"Plane",
			"scale":[
				6.374715805053711,
				6.374715805053711,
				6.374715805053711
			]
		}
	],
	"materials":[
		{
			"doubleSided":true,
			"name":"Material",
			"pbrMetallicRoughness":{
				"baseColorTexture":{
					"index":0
				},
				"metallicFactor":0
			}
		}
	],
	"meshes":[
		{
			"name":"Plane",
			"primitives":[
				{
					"attributes":{
						"POSITION":0,
						"NORMAL":1,
						"TEXCOORD_0":2
					},
					"indices":3,
					"material":0
				}
			]
		}
	],
	"textures":[
		{
			"sampler":0,
			"source":0
		}
	],
	"images":[
		{
			"mimeType":"image/png",
			"name":"texture",
			"uri":"texture.png"
		}
	],
	"accessors":[
		{
			"bufferView":0,
			"componentType":5126,
			"count":297,
			"max":[
				1.6220457553863525,
				1.2516535520553589,
				1.3789575099945068
			],
			"min":[
				-1.4553494453430176,
				-0.12870965898036957,
				-1.6984378099441528
			],
			"type":"VEC3"
		},
		{
			"bufferView":1,
			"componentType":5126,
			"count":297,
			"type":"VEC3"
		},
		{
			"bufferView":2,
			"componentType":5126,
			"count":297,
			"type":"VEC2"
		},
		{
			"bufferView":3,
			"componentType":5123,
			"count":900,
			"type":"SCALAR"
		}
	],
	"bufferViews":[
		{
			"buffer":0,
			"byteLength":3564,
			"byteOffset":0,
			"target":34962
		},
		{
			"buffer":0,
			"byteLength":3564,
			"byteOffset":3564,
			"target":34962
		},
		{
			"buffer":0,
			"byteLength":2376,
			"byteOffset":7128,
			"target":34962
		},
		{
			"buffer":0,
			"byteLength":1800,
			"byteOffset":9504,
			"target":34963
		}
	],
	"samplers":[
		{
			"magFilter":9729,
			"minFilter":9987
		}
	],
	"buffers":[
		{
			"byteLength":11304,
			"uri":"scene.bin"
		}
	]
}
