{
	"asset":{
		"generator":"Khronos glTF Blender I/O v4.1.63",
		"version":"2.0"
	},
	"extensionsUsed":[
		"KHR_materials_specular"
	],
	"scene":0,
	"scenes":[
		{
			"name":"Scene",
			"nodes":[
				6
			]
		}
	],
	"nodes":[
		{
			"mesh":0,
			"name":"Cube.004_Material.007_0"
		},
		{
			"children":[
				0
			],
			"name":"Cube.004",
			"rotation":[
				-0.5,
				-0.5,
				-0.5,
				0.5
			],
			"scale":[
				12.932376861572266,
				12.932377815246582,
				12.932376861572266
			],
			"translation":[
				-92.90260314941406,
				-106.39529418945312,
				93.80846405029297
			]
		},
		{
			"mesh":1,
			"name":"Cube.006_Material.006_0"
		},
		{
			"children":[
				2
			],
			"name":"Cube.006",
			"rotation":[
				-0.70710688829422,
				0,
				0,
				0.7071066498756409
			],
			"scale":[
				100,
				99.99999237060547,
				99.99999237060547
			]
		},
		{
			"children":[
				1,
				3
			],
			"name":"RootNode"
		},
		{
			"children":[
				4
			],
			"name":"pandora box.fbx",
			"rotation":[
				0.70710688829422,
				0,
				0,
				0.7071066498756409
			],
			"scale":[
				0.009999999776482582,
				0.010000000707805157,
				0.010000000707805157
			]
		},
		{
			"children":[
				5
			],
			"name":"Sketchfab_model",
			"rotation":[
				-0.70710688829422,
				0,
				0,
				0.7071066498756409
			]
		}
	],
	"materials":[
		{
			"doubleSided":true,
			"extensions":{
				"KHR_materials_specular":{
					"specularFactor":0.5887782573699951
				}
			},
			"name":"Material.007",
			"normalTexture":{
				"index":0
			},
			"pbrMetallicRoughness":{
				"baseColorTexture":{
					"index":1
				},
				"metallicRoughnessTexture":{
					"index":2
				},
				"roughnessFactor":0.260835736989975
			}
		},
		{
			"doubleSided":true,
			"name":"Material.006",
			"normalTexture":{
				"index":3
			},
			"pbrMetallicRoughness":{
				"baseColorTexture":{
					"index":4
				},
				"metallicRoughnessTexture":{
					"index":5
				}
			}
		}
	],
	"meshes":[
		{
			"name":"Cube.004_Material.007_0",
			"primitives":[
				{
					"attributes":{
						"POSITION":0,
						"NORMAL":1,
						"TEXCOORD_0":2,
						"TEXCOORD_1":3
					},
					"indices":4,
					"material":0
				}
			]
		},
		{
			"name":"Cube.006_Material.006_0",
			"primitives":[
				{
					"attributes":{
						"POSITION":5,
						"NORMAL":6,
						"TEXCOORD_0":7,
						"TEXCOORD_1":8
					},
					"indices":9,
					"material":1
				}
			]
		}
	],
	"textures":[
		{
			"sampler":0,
			"source":0
		},
		{
			"sampler":0,
			"source":1
		},
		{
			"sampler":0,
			"source":2
		},
		{
			"sampler":0,
			"source":3
		},
		{
			"sampler":0,
			"source":4
		},
		{
			"sampler":0,
			"source":5
		}
	],
	"images":[
		{
			"mimeType":"image/png",
			"name":"Material.007_normal",
			"uri":"Material_007_normal.png"
		},
		{
			"mimeType":"image/png",
			"name":"Material.007_baseColor",
			"uri":"Material_007_baseColor.png"
		},
		{
			"mimeType":"image/png",
			"name":"Material.007_metallicRoughness",
			"uri":"Material_007_metallicRoughness.png"
		},
		{
			"mimeType":"image/png",
			"name":"Material.006_normal",
			"uri":"Material_006_normal.png"
		},
		{
			"mimeType":"image/png",
			"name":"Material.006_baseColor",
			"uri":"Material_006_baseColor.png"
		},
		{
			"mimeType":"image/png",
			"name":"Material.006_metallicRoughness",
			"uri":"Material_006_metallicRoughness.png"
		}
	],
	"accessors":[
		{
			"bufferView":0,
			"componentType":5126,
			"count":2434,
			"max":[
				1.1594340801239014,
				15.618584632873535,
				13.015727996826172
			],
			"min":[
				-15.652266502380371,
				-1.2158920764923096,
				-1.0285015106201172
			],
			"type":"VEC3"
		},
		{
			"bufferView":1,
			"componentType":5126,
			"count":2434,
			"type":"VEC3"
		},
		{
			"bufferView":2,
			"componentType":5126,
			"count":2434,
			"type":"VEC2"
		},
		{
			"bufferView":3,
			"componentType":5126,
			"count":2434,
			"type":"VEC2"
		},
		{
			"bufferView":4,
			"componentType":5123,
			"count":12288,
			"type":"SCALAR"
		},
		{
			"bufferView":5,
			"componentType":5126,
			"count":3132,
			"max":[
				1.0668487548828125,
				1.0668487548828125,
				0.5352004766464233
			],
			"min":[
				-1.0668487548828125,
				-1.0668487548828125,
				-1.0650726556777954
			],
			"type":"VEC3"
		},
		{
			"bufferView":6,
			"componentType":5126,
			"count":3132,
			"type":"VEC3"
		},
		{
			"bufferView":7,
			"componentType":5126,
			"count":3132,
			"type":"VEC2"
		},
		{
			"bufferView":8,
			"componentType":5126,
			"count":3132,
			"type":"VEC2"
		},
		{
			"bufferView":9,
			"componentType":5123,
			"count":17211,
			"type":"SCALAR"
		}
	],
	"bufferViews":[
		{
			"buffer":0,
			"byteLength":29208,
			"byteOffset":0,
			"target":34962
		},
		{
			"buffer":0,
			"byteLength":29208,
			"byteOffset":29208,
			"target":34962
		},
		{
			"buffer":0,
			"byteLength":19472,
			"byteOffset":58416,
			"target":34962
		},
		{
			"buffer":0,
			"byteLength":19472,
			"byteOffset":77888,
			"target":34962
		},
		{
			"buffer":0,
			"byteLength":24576,
			"byteOffset":97360,
			"target":34963
		},
		{
			"buffer":0,
			"byteLength":37584,
			"byteOffset":121936,
			"target":34962
		},
		{
			"buffer":0,
			"byteLength":37584,
			"byteOffset":159520,
			"target":34962
		},
		{
			"buffer":0,
			"byteLength":25056,
			"byteOffset":197104,
			"target":34962
		},
		{
			"buffer":0,
			"byteLength":25056,
			"byteOffset":222160,
			"target":34962
		},
		{
			"buffer":0,
			"byteLength":34422,
			"byteOffset":247216,
			"target":34963
		}
	],
	"samplers":[
		{
			"magFilter":9729,
			"minFilter":9987
		}
	],
	"buffers":[
		{
			"byteLength":281640,
			"uri":"scene.bin"
		}
	]
}
