{
	"asset":{
		"generator":"Khronos glTF Blender I/O v4.1.63",
		"version":"2.0"
	},
	"extensionsUsed":[
		"KHR_materials_specular"
	],
	"scene":0,
	"scenes":[
		{
			"name":"Scene",
			"nodes":[
				6
			]
		}
	],
	"nodes":[
		{
			"mesh":0,
			"name":"Cube.001_Material.001_0",
			"translation":[
				0.9446365237236023,
				0,
				-0.642313539981842
			]
		},
		{
			"children":[
				0
			],
			"name":"Cube.001",
			"rotation":[
				-0.70710688829422,
				0,
				0,
				0.7071066498756409
			],
			"scale":[
				100,
				99.99999237060547,
				99.99999237060547
			],
			"translation":[
				-94.69221496582031,
				59.78396224975586,
				0
			]
		},
		{
			"mesh":1,
			"name":"Cube.008_Material.007_0",
			"translation":[
				0.9446365237236023,
				0,
				-0.642313539981842
			]
		},
		{
			"children":[
				2
			],
			"name":"Cube.008",
			"rotation":[
				-0.70710688829422,
				0,
				0,
				0.7071066498756409
			],
			"scale":[
				100,
				99.99999237060547,
				99.99999237060547
			],
			"translation":[
				-94.69221496582031,
				59.78396224975586,
				0
			]
		},
		{
			"children":[
				1,
				3
			],
			"name":"RootNode"
		},
		{
			"children":[
				4
			],
			"name":"pandora box.fbx",
			"rotation":[
				0.70710688829422,
				0,
				0,
				0.7071066498756409
			],
			"scale":[
				0.009999999776482582,
				0.010000000707805157,
				0.010000000707805157
			]
		},
		{
			"children":[
				5
			],
			"name":"Sketchfab_model",
			"rotation":[
				-0.70710688829422,
				0,
				0,
				0.7071066498756409
			]
		}
	],
	"materials":[
		{
			"doubleSided":true,
			"name":"Material.001",
			"normalTexture":{
				"index":0
			},
			"pbrMetallicRoughness":{
				"baseColorTexture":{
					"index":1
				},
				"metallicRoughnessTexture":{
					"index":2
				}
			}
		},
		{
			"doubleSided":true,
			"extensions":{
				"KHR_materials_specular":{
					"specularFactor":0.5887782573699951
				}
			},
			"name":"Material.007",
			"normalTexture":{
				"index":3
			},
			"pbrMetallicRoughness":{
				"baseColorTexture":{
					"index":4
				},
				"metallicRoughnessTexture":{
					"index":5
				},
				"roughnessFactor":0.260835736989975
			}
		}
	],
	"meshes":[
		{
			"name":"Cube.001_Material.001_0",
			"primitives":[
				{
					"attributes":{
						"POSITION":0,
						"NORMAL":1,
						"TEXCOORD_0":2,
						"TEXCOORD_1":3
					},
					"indices":4,
					"material":0
				}
			]
		},
		{
			"name":"Cube.008_Material.007_0",
			"primitives":[
				{
					"attributes":{
						"POSITION":5,
						"NORMAL":6,
						"TEXCOORD_0":7,
						"TEXCOORD_1":8
					},
					"indices":9,
					"material":1
				}
			]
		}
	],
	"textures":[
		{
			"sampler":0,
			"source":0
		},
		{
			"sampler":0,
			"source":1
		},
		{
			"sampler":0,
			"source":2
		},
		{
			"sampler":0,
			"source":3
		},
		{
			"sampler":0,
			"source":4
		},
		{
			"sampler":0,
			"source":5
		}
	],
	"images":[
		{
			"mimeType":"image/png",
			"name":"Material.006_normal",
			"uri":"Material_006_normal.png"
		},
		{
			"mimeType":"image/png",
			"name":"Material.006_baseColor",
			"uri":"Material_006_baseColor.png"
		},
		{
			"mimeType":"image/png",
			"name":"Material.001_metallicRoughness",
			"uri":"Material_001_metallicRoughness.png"
		},
		{
			"mimeType":"image/png",
			"name":"Material.007_normal",
			"uri":"Material_007_normal.png"
		},
		{
			"mimeType":"image/png",
			"name":"Material.007_baseColor",
			"uri":"Material_007_baseColor.png"
		},
		{
			"mimeType":"image/png",
			"name":"Material.007_metallicRoughness",
			"uri":"Material_007_metallicRoughness.png"
		}
	],
	"accessors":[
		{
			"bufferView":0,
			"componentType":5126,
			"count":49,
			"max":[
				0.4379839599132538,
				0.43798401951789856,
				1.2484188079833984
			],
			"min":[
				-0.43798398971557617,
				-0.4379839599132538,
				1.2007023096084595
			],
			"type":"VEC3"
		},
		{
			"bufferView":1,
			"componentType":5126,
			"count":49,
			"type":"VEC3"
		},
		{
			"bufferView":2,
			"componentType":5126,
			"count":49,
			"type":"VEC2"
		},
		{
			"bufferView":3,
			"componentType":5126,
			"count":49,
			"type":"VEC2"
		},
		{
			"bufferView":4,
			"componentType":5123,
			"count":216,
			"type":"SCALAR"
		},
		{
			"bufferView":5,
			"componentType":5126,
			"count":416,
			"max":[
				1.060101866722107,
				1.060101866722107,
				1.254410982131958
			],
			"min":[
				-1.060101866722107,
				-1.060101866722107,
				0.6418238878250122
			],
			"type":"VEC3"
		},
		{
			"bufferView":6,
			"componentType":5126,
			"count":416,
			"type":"VEC3"
		},
		{
			"bufferView":7,
			"componentType":5126,
			"count":416,
			"type":"VEC2"
		},
		{
			"bufferView":8,
			"componentType":5126,
			"count":416,
			"type":"VEC2"
		},
		{
			"bufferView":9,
			"componentType":5123,
			"count":2088,
			"type":"SCALAR"
		}
	],
	"bufferViews":[
		{
			"buffer":0,
			"byteLength":588,
			"byteOffset":0,
			"target":34962
		},
		{
			"buffer":0,
			"byteLength":588,
			"byteOffset":588,
			"target":34962
		},
		{
			"buffer":0,
			"byteLength":392,
			"byteOffset":1176,
			"target":34962
		},
		{
			"buffer":0,
			"byteLength":392,
			"byteOffset":1568,
			"target":34962
		},
		{
			"buffer":0,
			"byteLength":432,
			"byteOffset":1960,
			"target":34963
		},
		{
			"buffer":0,
			"byteLength":4992,
			"byteOffset":2392,
			"target":34962
		},
		{
			"buffer":0,
			"byteLength":4992,
			"byteOffset":7384,
			"target":34962
		},
		{
			"buffer":0,
			"byteLength":3328,
			"byteOffset":12376,
			"target":34962
		},
		{
			"buffer":0,
			"byteLength":3328,
			"byteOffset":15704,
			"target":34962
		},
		{
			"buffer":0,
			"byteLength":4176,
			"byteOffset":19032,
			"target":34963
		}
	],
	"samplers":[
		{
			"magFilter":9729,
			"minFilter":9987
		}
	],
	"buffers":[
		{
			"byteLength":23208,
			"uri":"scene.bin"
		}
	]
}
